# xmcd
#
# Track frame offsets:
# 150
# 18637
# 30482
# 43982
# 59047
# 77925
# 91902
# 104942
# 116477
# 132322
# 145010
# 163080
# 182507
# 199200
# 210905
# 224225
# 237690
# 250130
#
# Disc length: 3532 seconds
#
#
# Revision: 0
# Processed by: cddbd v1.5.2PL0 Copyright (c) Steve Scherf et al.
# Submitted via: FreeRIP 2.945 
#
DISCID=180dca12
DTITLE=V4 - Haroldo reis and Walbinho nos teclados
DYEAR=1900
DGENRE=Oldies
TTITLE0=Flor menina
TTITLE1=A força do amor
TTITLE2=Tu és o maior amor da minha vida
TTITLE3=A cruz que carrego
TTITLE4=Índia
TTITLE5=Zingarra
TTITLE6=Sofrer
TTITLE7=Amor fingido
TTITLE8=Veronica
TTITLE9=Entre espumas
TTITLE10=Ná ansia de te amar
TTITLE11=De volta a passagem
TTITLE12=Pout  Pourr
TTITLE13=Sonhar contigo
TTITLE14=Paixão de um homen
TTITLE15=A beleza da rosa
TTITLE16=Hora marcada
TTITLE17=Ultima canção
EXTD=
EXTT0=
EXTT1=
EXTT2=
EXTT3=
EXTT4=
EXTT5=
EXTT6=
EXTT7=
EXTT8=
EXTT9=
EXTT10=
EXTT11=
EXTT12=
EXTT13=
EXTT14=
EXTT15=
EXTT16=
EXTT17=
PLAYORDER=
